{
    "asset" : {
        "generator" : "Khronos glTF Blender I/O v0.9.36",
        "version" : "2.0"
    },
    "scene" : 0,
    "scenes" : [
        {
            "name" : "Scene",
            "nodes" : [
                0,
                1,
                13
            ]
        }
    ],
    "nodes" : [
        {
            "name" : "Light",
            "rotation" : [
                0.16907575726509094,
                0.7558803558349609,
                -0.27217137813568115,
                0.570947527885437
            ],
            "translation" : [
                4.076245307922363,
                5.903861999511719,
                -1.0054539442062378
            ]
        },
        {
            "name" : "Camera",
            "rotation" : [
                0.483536034822464,
                0.33687159419059753,
                -0.20870360732078552,
                0.7804827094078064
            ],
            "translation" : [
                7.358891487121582,
                4.958309173583984,
                6.925790786743164
            ]
        },
        {
            "name" : "bip_foot_L",
            "rotation" : [
                -0.5137919783592224,
                0.10184572637081146,
                -0.849437952041626,
                0.06403495371341705
            ],
            "scale" : [
                0.9999999403953552,
                1.0000001192092896,
                1.0000019073486328
            ],
            "translation" : [
                -0.030144907534122467,
                -0.12608566880226135,
                1.0422212426419719e-08
            ]
        },
        {
            "name" : "bip_foot_R",
            "rotation" : [
                0.5083977580070496,
                0.11145684123039246,
                0.8525137305259705,
                0.04826594889163971
            ],
            "scale" : [
                1.0000001192092896,
                1.0000003576278687,
                1.0000066757202148
            ],
            "translation" : [
                -0.03369166702032089,
                0.12017332017421722,
                -1.165057028629235e-08
            ]
        },
        {
            "name" : "bip_ear_L",
            "rotation" : [
                0.12627601623535156,
                0.0331420972943306,
                -0.9589630961418152,
                0.25168582797050476
            ],
            "scale" : [
                0.9999998211860657,
                1,
                0.9999999403953552
            ],
            "translation" : [
                0.2698758542537689,
                -0.12432922422885895,
                -0.042454853653907776
            ]
        },
        {
            "name" : "bip_ear_R",
            "rotation" : [
                -0.13793350756168365,
                -0.009309206157922745,
                0.9608333110809326,
                0.24018126726150513
            ],
            "scale" : [
                1.0000004768371582,
                1,
                0.9999999403953552
            ],
            "translation" : [
                0.2701631188392639,
                0.09645625948905945,
                -0.04245483875274658
            ]
        },
        {
            "children" : [
                4,
                5
            ],
            "name" : "bip_head",
            "rotation" : [
                -9.089182384514061e-08,
                -1.047697395506475e-08,
                0.000955865194555372,
                0.9999996423721313
            ],
            "scale" : [
                0.9999999403953552,
                0.9999999403953552,
                1
            ],
            "translation" : [
                0.6389293670654297,
                4.842878453814592e-08,
                -9.314603532928345e-10
            ]
        },
        {
            "name" : "bip_hand_L",
            "rotation" : [
                -1.2838158092165486e-08,
                -5.849423723169878e-10,
                -0.021665357053279877,
                0.9997652769088745
            ],
            "translation" : [
                0.42572182416915894,
                -1.0000901056628209e-05,
                1.4954366633901373e-09
            ]
        },
        {
            "children" : [
                7
            ],
            "name" : "bip_upperArm_L",
            "rotation" : [
                -3.3837370239098163e-08,
                -3.372821311131702e-08,
                -0.7080903649330139,
                0.7061218619346619
            ],
            "translation" : [
                0.45705705881118774,
                -0.18070313334465027,
                -0.0343545638024807
            ]
        },
        {
            "name" : "bip_hand_R",
            "rotation" : [
                1.951897488083887e-08,
                -3.47833974956302e-08,
                -9.621216304367408e-05,
                1
            ],
            "scale" : [
                1,
                1,
                0.9999999403953552
            ],
            "translation" : [
                0.4220393896102905,
                -2.3543252609670162e-06,
                3.81915015168488e-08
            ]
        },
        {
            "children" : [
                9
            ],
            "name" : "bip_upperArm_R",
            "rotation" : [
                -6.482195402668367e-08,
                6.475153924156984e-08,
                0.707397997379303,
                0.7068154811859131
            ],
            "translation" : [
                0.43510761857032776,
                0.18245159089565277,
                -0.03611881658434868
            ]
        },
        {
            "children" : [
                2,
                3,
                6,
                8,
                10
            ],
            "name" : "bip_pelvis",
            "rotation" : [
                -0.00021307195129338652,
                0.00021569921227637678,
                0.7071067690849304,
                0.7071067690849304
            ],
            "translation" : [
                0,
                0.1875,
                0.058161742985248566
            ]
        },
        {
            "mesh" : 0,
            "name" : "Derpy_Toriel_Derpy_Toriel.smd",
            "skin" : 0
        },
        {
            "children" : [
                12,
                11
            ],
            "name" : "Derpy_Toriel_ARM"
        }
    ],
    "materials" : [
        {
            "doubleSided" : true,
            "name" : "Material",
            "pbrMetallicRoughness" : {
                "baseColorTexture" : {
                    "index" : 0,
                    "texCoord" : 0
                },
                "metallicFactor" : 0,
                "roughnessFactor" : 0.4000000059604645
            }
        }
    ],
    "meshes" : [
        {
            "name" : "Derpy_Toriel_Derpy_Toriel.smd_MESH",
            "primitives" : [
                {
                    "attributes" : {
                        "POSITION" : 0,
                        "NORMAL" : 1,
                        "TEXCOORD_0" : 2,
                        "JOINTS_0" : 3,
                        "WEIGHTS_0" : 4
                    },
                    "indices" : 5,
                    "material" : 0
                }
            ]
        }
    ],
    "textures" : [
        {
            "source" : 0
        }
    ],
    "images" : [
        {
            "bufferView" : 6,
            "mimeType" : "image/png",
            "name" : "derpytoriel_DIF"
        }
    ],
    "skins" : [
        {
            "inverseBindMatrices" : 6,
            "joints" : [
                11,
                2,
                3,
                6,
                4,
                5,
                8,
                7,
                10,
                9
            ],
            "name" : "Derpy_Toriel_ARM"
        }
    ],
    "accessors" : [
        {
            "bufferView" : 0,
            "componentType" : 5126,
            "count" : 21703,
            "max" : [
                0.8218721747398376,
                1.3319756984710693,
                0.3418634533882141
            ],
            "min" : [
                -0.8334079384803772,
                -0.029844453558325768,
                -0.21550801396369934
            ],
            "type" : "VEC3"
        },
        {
            "bufferView" : 1,
            "componentType" : 5126,
            "count" : 21703,
            "type" : "VEC3"
        },
        {
            "bufferView" : 2,
            "componentType" : 5126,
            "count" : 21703,
            "type" : "VEC2"
        },
        {
            "bufferView" : 3,
            "componentType" : 5123,
            "count" : 21703,
            "type" : "VEC4"
        },
        {
            "bufferView" : 4,
            "componentType" : 5126,
            "count" : 21703,
            "type" : "VEC4"
        },
        {
            "bufferView" : 5,
            "componentType" : 5123,
            "count" : 111840,
            "type" : "SCALAR"
        },
        {
            "bufferView" : 7,
            "componentType" : 5126,
            "count" : 10,
            "type" : "MAT4"
        }
    ],
    "bufferViews" : [
        {
            "buffer" : 0,
            "byteLength" : 260436,
            "byteOffset" : 0
        },
        {
            "buffer" : 0,
            "byteLength" : 260436,
            "byteOffset" : 260436
        },
        {
            "buffer" : 0,
            "byteLength" : 173624,
            "byteOffset" : 520872
        },
        {
            "buffer" : 0,
            "byteLength" : 173624,
            "byteOffset" : 694496
        },
        {
            "buffer" : 0,
            "byteLength" : 347248,
            "byteOffset" : 868120
        },
        {
            "buffer" : 0,
            "byteLength" : 223680,
            "byteOffset" : 1215368
        },
        {
            "buffer" : 0,
            "byteLength" : 1894,
            "byteOffset" : 1439048
        },
        {
            "buffer" : 0,
            "byteLength" : 640,
            "byteOffset" : 1440944
        }
    ],
    "buffers" : [
        {
            "byteLength" : 1441584,
            "uri" : "data:application/octet-stream;base64,"
        }
    ]
}
